# xmcd CD database file generated by Grip 3.2.0
# 
# Track frame offsets:
#       150
#       15868
#       33777
#       54476
#       69742
#       86726
#       102351
# 
# Disc length: 1596 seconds
# 
# Revision: 1
# Processed by: cddbd v1.5.2PL0 Copyright (c) Steve Scherf et al.
# Submitted via: Grip 3.2.0
# 
DISCID=4d063a07
DTITLE=teste1 - teste1
DYEAR=2004
DGENRE=Blues
TTITLE0=1
TTITLE1=2
TTITLE2=3
TTITLE3=4
TTITLE4=5
TTITLE5=6
TTITLE6=7
EXTD=gdhsj jhaksd
EXTT0=
EXTT1=
EXTT2=
EXTT3=
EXTT4=
EXTT5=
EXTT6=
PLAYORDER=
